<?xml version="1.0" encoding="utf-8"?>
<!-- Generator: Adobe Illustrator 23.0.1, SVG Export Plug-In . SVG Version: 6.00 Build 0)  -->
<svg version="1.1" id="OBJECTS" xmlns="http://www.w3.org/2000/svg" xmlns:xlink="http://www.w3.org/1999/xlink" x="0px" y="0px"
	 viewBox="0 0 500 500" style="enable-background:new 0 0 500 500;" xml:space="preserve">
<style type="text/css">
	.st0{fill:#D7E6FF;}
	.st1{display:none;fill:#D7E6FF;}
</style>
<path class="st0" d="M236.21,180.6c-0.05-0.16-0.2-0.28-0.37-0.29l-9.12-0.84l-3.61-8.42c-0.07-0.16-0.22-0.26-0.39-0.26
	s-0.33,0.1-0.39,0.26l-3.61,8.42l-9.12,0.84c-0.17,0.02-0.31,0.13-0.37,0.29c-0.05,0.16,0,0.34,0.12,0.45l6.89,6.04l-2.02,8.94
	c-0.04,0.17,0.03,0.34,0.17,0.44c0.14,0.1,0.32,0.11,0.47,0.02l7.87-4.69l7.87,4.69c0.07,0.04,0.14,0.06,0.22,0.06
	c0.09,0,0.18-0.03,0.25-0.08c0.14-0.1,0.2-0.27,0.17-0.44l-2.02-8.94l6.89-6.04C236.22,180.94,236.26,180.76,236.21,180.6z
	 M222.71,172.3l3.22,7.49l-3.22,3.69l-3.22-3.69L222.71,172.3z M210.65,181.07l8.17-0.75l3.2,3.67l-5.24,2.44L210.65,181.07z
	 M217.07,187.24l5.21-2.43v6.25l-7.03,4.18L217.07,187.24z M230.17,195.24l-7.03-4.18v-6.25l5.21,2.43L230.17,195.24z
	 M228.65,186.43l-5.24-2.44l3.2-3.67l8.17,0.75L228.65,186.43z"/>
<path class="st1" d="M206.79,160.62c0.01-0.01,0.01-0.02,0.02-0.03c0.01-0.02,0.01-0.03,0.02-0.05c0-0.01,0.01-0.02,0.01-0.02
	c0.01-0.03,0.01-0.05,0.01-0.08c0,0,0,0,0-0.01c0-0.01,0-0.01,0-0.02c0-0.02,0-0.04-0.01-0.06c0-0.01,0-0.02-0.01-0.03
	c0-0.02-0.01-0.03-0.01-0.05c0-0.01-0.01-0.02-0.01-0.03c-0.01-0.01-0.01-0.03-0.02-0.04c-0.01-0.01-0.01-0.02-0.02-0.03
	c0,0,0-0.01-0.01-0.01l-5.08-6.77c0,0,0,0-0.01-0.01c-0.02-0.02-0.04-0.04-0.06-0.06c0,0,0,0-0.01-0.01
	c-0.02-0.02-0.05-0.04-0.08-0.05c-0.03-0.01-0.06-0.02-0.09-0.03c0,0-0.01,0-0.01,0c-0.03-0.01-0.05-0.01-0.08-0.01
	c0,0-0.01,0-0.01,0h-8.48c0,0,0,0-0.01,0h-8.44c0,0-0.01,0-0.01,0c-0.02,0-0.04,0-0.06,0.01c-0.01,0-0.02,0-0.03,0.01
	c-0.03,0.01-0.05,0.02-0.08,0.03c0,0,0,0-0.01,0l0,0c-0.03,0.01-0.05,0.03-0.08,0.05c-0.01,0.01-0.01,0.01-0.02,0.02
	c-0.02,0.02-0.03,0.03-0.05,0.05c0,0-0.01,0-0.01,0.01l-5.08,6.77c0,0,0,0.01-0.01,0.01c-0.01,0.01-0.01,0.02-0.02,0.03
	c-0.01,0.01-0.01,0.03-0.02,0.04c0,0.01-0.01,0.02-0.01,0.03c-0.01,0.02-0.01,0.03-0.01,0.05c0,0.01,0,0.02-0.01,0.03
	c0,0.02,0,0.04-0.01,0.06c0,0.01,0,0.01,0,0.02c0,0,0,0,0,0.01c0,0.03,0,0.05,0.01,0.08c0,0.01,0.01,0.02,0.01,0.03
	c0,0.02,0.01,0.03,0.01,0.04c0,0.01,0.01,0.02,0.02,0.04c0.01,0.01,0.01,0.02,0.02,0.03c0.01,0.01,0.02,0.02,0.02,0.04
	c0,0,0.01,0.01,0.01,0.02l13.53,16.07c0,0,0,0,0,0.01l0,0.01c0,0,0,0,0.01,0.01c0.01,0.01,0.02,0.02,0.03,0.03
	c0.01,0.01,0.01,0.01,0.02,0.02c0,0,0.01,0.01,0.01,0.01c0.01,0.01,0.02,0.01,0.03,0.02c0.01,0,0.02,0.01,0.02,0.01
	c0,0,0.01,0,0.01,0.01c0.01,0,0.01,0.01,0.02,0.01c0.01,0,0.02,0.01,0.04,0.01c0,0,0,0,0,0c0.01,0,0.02,0,0.02,0.01
	c0.01,0,0.01,0,0.02,0c0.01,0,0.01,0,0.01,0c0,0,0,0,0,0c0.02,0,0.04,0.01,0.07,0.01c0.02,0,0.04,0,0.07-0.01c0.01,0,0.01,0,0.02,0
	c0.01,0,0.02,0,0.02-0.01c0.02-0.01,0.04-0.01,0.06-0.02c0.01,0,0.01,0,0.02-0.01c0.01,0,0.01-0.01,0.02-0.01c0,0,0,0,0,0
	c0.02-0.01,0.03-0.02,0.04-0.03c0,0,0.01-0.01,0.01-0.01c0,0,0,0,0.01-0.01c0,0,0,0,0.01,0c0.02-0.01,0.03-0.03,0.04-0.04
	c0,0,0,0,0,0l13.54-16.08c0-0.01,0.01-0.01,0.01-0.02c0.01-0.01,0.02-0.02,0.02-0.03C206.78,160.64,206.79,160.63,206.79,160.62z
	 M184.34,154.46l2.77,5.55h-6.93L184.34,154.46z M197.37,160.86l-4.5,14.25l-4.5-14.25H197.37z M188.64,160.01l4.23-5.64l4.23,5.64
	H188.64z M193.72,154.08h6.93l-2.77,5.55L193.72,154.08z M187.87,159.63l-2.77-5.55h6.93L187.87,159.63z M187.49,160.86l4.35,13.76
	l-11.59-13.76H187.49z M198.26,160.86h7.24l-11.59,13.76L198.26,160.86z M198.64,160.01l2.77-5.55l4.16,5.55H198.64z"/>
</svg>
