<?xml version="1.0" encoding="utf-8"?>
<!-- Generator: Adobe Illustrator 23.0.1, SVG Export Plug-In . SVG Version: 6.00 Build 0)  -->
<svg version="1.1" id="OBJECTS" xmlns="http://www.w3.org/2000/svg" xmlns:xlink="http://www.w3.org/1999/xlink" x="0px" y="0px"
	 viewBox="0 0 500 500" style="enable-background:new 0 0 500 500;" xml:space="preserve">
<style type="text/css">
	.st0{fill:#888888;}
</style>
<g>
	<path class="st0" d="M250,235.6c-2.7,0-4.9,2.2-4.9,4.9s2.2,4.9,4.9,4.9c2.7,0,4.9-2.2,4.9-4.9C254.9,237.8,252.7,235.6,250,235.6z
		 M250,244.5c-2.2,0-4-1.8-4-4c0-2.2,1.8-4,4-4c2.2,0,4,1.8,4,4C254,242.7,252.2,244.5,250,244.5z"/>
	<path class="st0" d="M262.5,238c0-0.3-0.2-0.5-0.5-0.5h-1c-0.3-1-0.6-1.9-1.1-2.8l0.7-0.7c0.2-0.2,0.2-0.5,0-0.6l-3.5-3.5
		c-0.2-0.2-0.5-0.2-0.6,0l-0.7,0.7c-0.9-0.5-1.8-0.9-2.8-1.1v-1c0-0.3-0.2-0.5-0.5-0.5h-5c-0.3,0-0.5,0.2-0.5,0.5v1
		c-1,0.3-1.9,0.6-2.8,1.1l-0.7-0.7c-0.1-0.1-0.2-0.1-0.3-0.1s-0.2,0-0.3,0.1l-3.5,3.5c-0.2,0.2-0.2,0.5,0,0.6l0.7,0.7
		c-0.5,0.9-0.9,1.8-1.1,2.8h-1c-0.3,0-0.5,0.2-0.5,0.5v5c0,0.3,0.2,0.5,0.5,0.5h1c0.3,1,0.6,1.9,1.1,2.8l-0.7,0.7
		c-0.1,0.1-0.1,0.2-0.1,0.3c0,0.1,0,0.2,0.1,0.3l3.5,3.5c0.2,0.2,0.5,0.2,0.6,0l0.7-0.7c0.9,0.5,1.8,0.9,2.8,1.1v1
		c0,0.3,0.2,0.5,0.5,0.5h5c0.3,0,0.5-0.2,0.5-0.5v-1c1-0.3,1.9-0.6,2.8-1.1l0.7,0.7c0.2,0.2,0.5,0.2,0.6,0l3.5-3.5
		c0.1-0.1,0.1-0.2,0.1-0.3c0-0.1,0-0.2-0.1-0.3l-0.7-0.7c0.5-0.9,0.9-1.8,1.1-2.8h1c0.1,0,0.2,0,0.3-0.1c0.1-0.1,0.1-0.2,0.1-0.3
		L262.5,238z M260.6,242.5c-0.2,0-0.4,0.1-0.4,0.4c-0.3,1.1-0.7,2.2-1.3,3.2c-0.1,0.2-0.1,0.4,0.1,0.6l0.7,0.7l-2.9,2.9l-0.7-0.7
		c-0.2-0.2-0.4-0.2-0.6-0.1c-1,0.6-2,1-3.2,1.3c-0.2,0-0.4,0.2-0.4,0.4v0.9h-4.1v-0.9c0-0.2-0.1-0.4-0.4-0.4
		c-1.1-0.3-2.2-0.7-3.2-1.3c-0.2-0.1-0.4-0.1-0.6,0.1l-0.7,0.7l-2.9-2.9l0.7-0.7c0.2-0.2,0.2-0.4,0.1-0.6c-0.6-1-1-2-1.3-3.2
		c0-0.2-0.2-0.4-0.4-0.4h-0.9v-4.1h0.9c0.2,0,0.4-0.1,0.4-0.4c0.3-1.1,0.7-2.2,1.3-3.2c0.1-0.2,0.1-0.4-0.1-0.6l-0.7-0.7l2.9-2.9
		l0.7,0.7c0.2,0.2,0.4,0.2,0.6,0.1c1-0.6,2-1,3.2-1.3c0.2,0,0.4-0.2,0.4-0.4v-0.9h4.1v0.9c0,0.2,0.1,0.4,0.4,0.4
		c1.1,0.3,2.2,0.7,3.2,1.3c0.2,0.1,0.4,0.1,0.6-0.1l0.7-0.7l2.9,2.9l-0.7,0.7c-0.2,0.2-0.2,0.4-0.1,0.6c0.6,1,1,2,1.3,3.2
		c0,0.2,0.2,0.4,0.4,0.4h0.9v4.1H260.6z"/>
	<path class="st0" d="M250,233.7c-3.7,0-6.8,3-6.8,6.8c0,3.7,3,6.8,6.8,6.8c3.7,0,6.8-3,6.8-6.8C256.8,236.8,253.7,233.7,250,233.7z
		 M250,246.4c-3.2,0-5.9-2.6-5.9-5.9s2.6-5.9,5.9-5.9c3.2,0,5.9,2.6,5.9,5.9C255.8,243.7,253.2,246.4,250,246.4z"/>
</g>
</svg>
